<svg xmlns="http://www.w3.org/2000/svg" viewBox="0 0 64 56" width="64" height="56">
<defs>
<linearGradient id="j" x1="0" y1="1" x2="1" y2="0"><stop offset="0" stop-color="#aeb8c8"/><stop offset=".55" stop-color="#e9eef6"/><stop offset="1" stop-color="#ffffff"/></linearGradient>
<linearGradient id="b" x1="0" y1="0" x2="0" y2="1"><stop offset="0" stop-color="#fff" stop-opacity=".38"/><stop offset=".55" stop-color="#fff" stop-opacity=".1"/><stop offset="1" stop-color="#fff" stop-opacity=".14"/></linearGradient>
<linearGradient id="r" x1="0" y1="0" x2="1" y2="1"><stop offset="0" stop-color="#fff" stop-opacity=".95"/><stop offset=".45" stop-color="#fff" stop-opacity=".18"/><stop offset="1" stop-color="#fff" stop-opacity=".75"/></linearGradient>
<linearGradient id="g" x1="0" y1="0" x2="0" y2="1"><stop offset="0" stop-color="#fff" stop-opacity=".75"/><stop offset="1" stop-color="#fff" stop-opacity="0"/></linearGradient>
<radialGradient id="c" cx=".5" cy=".85" r=".6"><stop offset="0" stop-color="#fff" stop-opacity=".45"/><stop offset="1" stop-color="#fff" stop-opacity="0"/></radialGradient>
<filter id="s" x="-20%" y="-20%" width="140%" height="140%"><feGaussianBlur stdDeviation=".7"/></filter>
<filter id="h" x="-30%" y="-30%" width="160%" height="160%"><feGaussianBlur stdDeviation="2.2"/></filter>
</defs>
<path d="M28.26 8 Q32 1.5 35.74 8 L58.76 48 Q62.5 54.5 55 54.5 L9 54.5 Q1.5 54.5 5.24 48 Z" fill="url(#j)" opacity=".16"/>
<path d="M28.26 8 Q32 1.5 35.74 8 L58.76 48 Q62.5 54.5 55 54.5 L9 54.5 Q1.5 54.5 5.24 48 Z" fill="url(#b)"/>
<path d="M29.83 25.59 Q32 22 34.17 25.59 L44.33 42.41 Q46.5 46 42.3 46 L21.7 46 Q17.5 46 19.67 42.41 Z" fill="#fff" filter="url(#h)" opacity=".55"/>
<path d="M29.83 25.59 Q32 22 34.17 25.59 L44.33 42.41 Q46.5 46 42.3 46 L21.7 46 Q17.5 46 19.67 42.41 Z" fill="url(#j)"/>
<path d="M29.83 25.59 Q32 22 34.17 25.59 L44.33 42.41 Q46.5 46 42.3 46 L21.7 46 Q17.5 46 19.67 42.41 Z" fill="url(#g)" opacity=".45"/>
<ellipse cx="32" cy="49.5" rx="14" ry="3" fill="url(#c)"/>
<path d="M28.26 8 Q32 1.5 35.74 8 L58.76 48 Q62.5 54.5 55 54.5 L9 54.5 Q1.5 54.5 5.24 48 Z" fill="none" stroke="url(#r)" stroke-width="2"/>
<path d="M27.6 9.6 Q24 15.5 10.2 39.6" fill="none" stroke="#fff" stroke-opacity=".8" stroke-width="1.6" stroke-linecap="round" filter="url(#s)"/>
<path d="M58.2 47.6 Q55.4 52 49 52.6" fill="none" stroke="#fff" stroke-opacity=".5" stroke-width="1.2" stroke-linecap="round" filter="url(#s)"/>
<path d="M29.4 27.6 Q26 32 22.6 38.4" fill="none" stroke="#fff" stroke-opacity=".55" stroke-width="1.1" stroke-linecap="round" filter="url(#s)"/>
</svg>
